<svg xmlns="http://www.w3.org/2000/svg" xmlns:xlink="http://www.w3.org/1999/xlink" width="1920px" height="902px">
<circle cx="989.6574074074074" cy="348.0432098765431" r="43.49922839506176" style="stroke:#000000; fill:none"/>
<circle cx="989.6574074074074" cy="522.0401234567901" r="43.499228395061735" style="stroke:#000000; fill:none"/>
<circle cx="989.6574074074074" cy="435.04166666666663" r="43.499228395061756" style="stroke:#000000; fill:none"/>
<circle cx="989.6574074074075" cy="609.0385802469136" r="43.499228395061714" style="stroke:#000000; fill:none"/>
<circle cx="1065.000281077697" cy="478.54089506172835" r="43.49922839506171" style="stroke:#000000; fill:none"/>
<circle cx="1065.000281077697" cy="391.5424382716048" r="43.4992283950617" style="stroke:#000000; fill:none"/>
<circle cx="1140.3431547479868" cy="348.043209876543" r="43.49922839506177" style="stroke:#000000; fill:none"/>
<circle cx="1140.3431547479868" cy="522.0401234567901" r="43.499228395061785" style="stroke:#000000; fill:none"/>
<circle cx="989.6574074074073" cy="261.0447530864197" r="43.49922839506162" style="stroke:#000000; fill:none"/>
<circle cx="914.3145337371177" cy="391.54243827160496" r="43.4992283950617" style="stroke:#000000; fill:none"/>
<circle cx="914.3145337371177" cy="478.54089506172835" r="43.4992283950617" style="stroke:#000000; fill:none"/>
<circle cx="838.971660066828" cy="522.0401234567902" r="43.49922839506181" style="stroke:#000000; fill:none"/>
<circle cx="838.9716600668279" cy="348.04320987654324" r="43.499228395061735" style="stroke:#000000; fill:none"/>
<circle cx="989.6574074074074" cy="435.0416666666666" r="260.99537037037027" style="stroke:#000000; fill:none"/>
<circle cx="989.6574074074073" cy="261.0447530864197" r="86.99845679012341" style="stroke:#000000; fill:none"/>
<circle cx="989.6574074074074" cy="435.0416666666666" r="86.99845679012347" style="stroke:#000000; fill:none"/>
<circle cx="989.6574074074075" cy="609.0385802469136" r="86.99845679012346" style="stroke:#000000; fill:none"/>
<circle cx="1140.3431547479868" cy="348.0432098765431" r="86.99845679012348" style="stroke:#000000; fill:none"/>
<circle cx="1140.3431547479868" cy="522.0401234567901" r="86.99845679012347" style="stroke:#000000; fill:none"/>
<circle cx="838.971660066828" cy="522.0401234567902" r="86.99845679012348" style="stroke:#000000; fill:none"/>
<circle cx="838.9716600668279" cy="348.0432098765432" r="86.99845679012347" style="stroke:#000000; fill:none"/>
</svg>