<svg xmlns="http://www.w3.org/2000/svg" xmlns:xlink="http://www.w3.org/1999/xlink" width="1920px" height="902px">
<circle cx="987.6156799999999" cy="548.6611200000002" r="809.9014150566221" style="stroke:#000000; fill:none"/>
<circle cx="447.681403295585" cy="548.6611200000002" r="269.9671383522073" style="stroke:#000000; fill:none"/>
<circle cx="987.6156799999999" cy="548.6611200000002" r="269.9671383522075" style="stroke:#000000; fill:none"/>
<circle cx="1527.5499567044149" cy="548.6611200000002" r="269.9671383522074" style="stroke:#000000; fill:none"/>
<circle cx="1257.5828183522076" cy="81.06432000000046" r="269.9671383522075" style="stroke:#000000; fill:none"/>
<circle cx="1257.5828183522076" cy="1016.2579199999999" r="269.96713835220754" style="stroke:#000000; fill:none"/>
<circle cx="717.6485416477925" cy="1016.2579199999999" r="269.9671383522075" style="stroke:#000000; fill:none"/>
<circle cx="717.6485416477924" cy="81.06432000000041" r="269.96713835220754" style="stroke:#000000; fill:none"/>
<circle cx="717.6485416477925" cy="1016.2579199999999" r="134.98356917610377" style="stroke:#000000; fill:none"/>
<circle cx="987.6156799999999" cy="548.6611200000002" r="134.98356917610386" style="stroke:#000000; fill:none"/>
<circle cx="1527.5499567044149" cy="548.6611200000002" r="134.98356917610374" style="stroke:#000000; fill:none"/>
<circle cx="1257.5828183522076" cy="81.06432000000046" r="134.9835691761039" style="stroke:#000000; fill:none"/>
<circle cx="717.6485416477924" cy="81.06432000000041" r="134.98356917610363" style="stroke:#000000; fill:none"/>
<circle cx="447.681403295585" cy="548.6611200000002" r="134.98356917610363" style="stroke:#000000; fill:none"/>
<circle cx="1257.5828183522076" cy="1016.2579199999999" r="134.98356917610397" style="stroke:#000000; fill:none"/>
<circle cx="1122.5992491761035" cy="782.45952" r="134.98356917610369" style="stroke:#000000; fill:none"/>
<circle cx="852.6321108238963" cy="782.4595200000001" r="134.98356917610357" style="stroke:#000000; fill:none"/>
<circle cx="717.6485416477924" cy="548.6611200000003" r="134.98356917610374" style="stroke:#000000; fill:none"/>
<circle cx="852.6321108238961" cy="314.86272000000037" r="134.9835691761036" style="stroke:#000000; fill:none"/>
<circle cx="1122.5992491761037" cy="314.8627200000003" r="134.98356917610377" style="stroke:#000000; fill:none"/>
<circle cx="1257.5828183522076" cy="548.6611200000001" r="134.98356917610386" style="stroke:#000000; fill:none"/>
<circle cx="177.71426494337777" cy="548.6611200000001" r="67.49178458805187" style="stroke:#000000; fill:none"/>
<circle cx="312.6978341194814" cy="548.6611200000002" r="67.49178458805176" style="stroke:#000000; fill:none"/>
<circle cx="447.681403295585" cy="548.6611200000002" r="67.49178458805181" style="stroke:#000000; fill:none"/>
<circle cx="582.6649724716887" cy="548.6611200000002" r="67.49178458805187" style="stroke:#000000; fill:none"/>
<circle cx="717.6485416477924" cy="548.6611200000003" r="67.49178458805181" style="stroke:#000000; fill:none"/>
<circle cx="852.632110823896" cy="548.6611200000003" r="67.49178458805184" style="stroke:#000000; fill:none"/>
<circle cx="987.6156799999999" cy="548.6611200000002" r="67.49178458805193" style="stroke:#000000; fill:none"/>
<circle cx="1122.5992491761037" cy="548.6611200000004" r="67.49178458805193" style="stroke:#000000; fill:none"/>
<circle cx="1257.5828183522076" cy="548.6611200000001" r="67.49178458805193" style="stroke:#000000; fill:none"/>
<circle cx="1392.5663875283112" cy="548.6611200000006" r="67.49178458805187" style="stroke:#000000; fill:none"/>
<circle cx="1527.5499567044149" cy="548.6611200000002" r="67.49178458805187" style="stroke:#000000; fill:none"/>
<circle cx="1662.5335258805187" cy="548.6611200000007" r="67.49178458805187" style="stroke:#000000; fill:none"/>
<circle cx="1797.517095056622" cy="548.6611200000007" r="67.49178458805163" style="stroke:#000000; fill:none"/>
<circle cx="582.6649724716889" cy="-152.73407999999927" r="67.49178458805177" style="stroke:#000000; fill:none"/>
<circle cx="650.1567570597407" cy="-35.83487999999943" r="67.49178458805177" style="stroke:#000000; fill:none"/>
<circle cx="717.6485416477924" cy="81.06432000000041" r="67.49178458805177" style="stroke:#000000; fill:none"/>
<circle cx="785.1403262358442" cy="197.96352000000013" r="67.49178458805197" style="stroke:#000000; fill:none"/>
<circle cx="852.6321108238961" cy="314.8627200000003" r="67.49178458805181" style="stroke:#000000; fill:none"/>
<circle cx="920.1238954119478" cy="431.76192000000015" r="67.49178458805193" style="stroke:#000000; fill:none"/>
<circle cx="1055.1074645880517" cy="665.5603200000003" r="67.4917845880518" style="stroke:#000000; fill:none"/>
<circle cx="1122.5992491761035" cy="782.45952" r="67.4917845880518" style="stroke:#000000; fill:none"/>
<circle cx="1190.0910337641553" cy="899.35872" r="67.49178458805194" style="stroke:#000000; fill:none"/>
<circle cx="1257.5828183522076" cy="1016.2579199999999" r="67.49178458805197" style="stroke:#000000; fill:none"/>
<circle cx="1325.0746029402592" cy="1133.1571200000003" r="67.49178458805164" style="stroke:#000000; fill:none"/>
<circle cx="1392.5663875283108" cy="1250.0563199999997" r="67.49178458805162" style="stroke:#000000; fill:none"/>
<circle cx="1392.5663875283112" cy="-152.73407999999904" r="67.49178458805177" style="stroke:#000000; fill:none"/>
<circle cx="1325.0746029402594" cy="-35.8348799999992" r="67.49178458805169" style="stroke:#000000; fill:none"/>
<circle cx="1257.5828183522076" cy="81.06432000000046" r="67.49178458805177" style="stroke:#000000; fill:none"/>
<circle cx="1190.0910337641558" cy="197.96352000000024" r="67.49178458805197" style="stroke:#000000; fill:none"/>
<circle cx="1122.5992491761037" cy="314.8627200000003" r="67.49178458805184" style="stroke:#000000; fill:none"/>
<circle cx="1055.107464588052" cy="431.76192000000026" r="67.4917845880519" style="stroke:#000000; fill:none"/>
<circle cx="920.1238954119481" cy="665.5603200000004" r="67.49178458805171" style="stroke:#000000; fill:none"/>
<circle cx="852.6321108238963" cy="782.4595200000001" r="67.49178458805187" style="stroke:#000000; fill:none"/>
<circle cx="785.1403262358444" cy="899.35872" r="67.49178458805187" style="stroke:#000000; fill:none"/>
<circle cx="717.6485416477925" cy="1016.2579199999999" r="67.49178458805184" style="stroke:#000000; fill:none"/>
<circle cx="650.1567570597408" cy="1133.1571199999998" r="67.49178458805177" style="stroke:#000000; fill:none"/>
<circle cx="582.664972471689" cy="1250.0563199999997" r="67.49178458805177" style="stroke:#000000; fill:none"/>
<circle cx="852.6321108238961" cy="81.06432000000041" r="67.49178458805196" style="stroke:#000000; fill:none"/>
<circle cx="987.6156800000001" cy="81.06432000000041" r="67.49178458805179" style="stroke:#000000; fill:none"/>
<circle cx="1122.5992491761037" cy="81.06432000000041" r="67.49178458805217" style="stroke:#000000; fill:none"/>
<circle cx="1392.5663875283115" cy="81.06432000000046" r="67.49178458805176" style="stroke:#000000; fill:none"/>
<circle cx="1527.5499567044149" cy="81.06432000000046" r="60.67372978892193" style="stroke:#000000; fill:none"/>
<circle cx="312.6978341194815" cy="782.4595199999999" r="67.49178458805169" style="stroke:#000000; fill:none"/>
<circle cx="380.1896187075332" cy="665.5603200000003" r="67.4917845880519" style="stroke:#000000; fill:none"/>
<circle cx="515.1731878836368" cy="431.7619200000003" r="67.49178458805171" style="stroke:#000000; fill:none"/>
<circle cx="582.6649724716885" cy="314.86272000000065" r="67.4917845880519" style="stroke:#000000; fill:none"/>
<circle cx="650.1567570597404" cy="197.9635200000006" r="67.49178458805135" style="stroke:#000000; fill:none"/>
<circle cx="785.1403262358444" cy="-35.83487999999977" r="67.4917845880519" style="stroke:#000000; fill:none"/>
<circle cx="852.6321108238963" cy="-152.73407999999984" r="60.67372978892189" style="stroke:#000000; fill:none"/>
<circle cx="1122.599249176104" cy="-152.73407999999938" r="60.67372978892203" style="stroke:#000000; fill:none"/>
<circle cx="1190.0910337641558" cy="-35.83487999999949" r="74.30983938718181" style="stroke:#000000; fill:none"/>
<circle cx="1325.0746029402592" cy="197.96352000000007" r="67.49178458805207" style="stroke:#000000; fill:none"/>
<circle cx="1392.5663875283112" cy="314.86272000000037" r="67.49178458805177" style="stroke:#000000; fill:none"/>
<circle cx="1460.058172116363" cy="431.76192000000015" r="67.4917845880519" style="stroke:#000000; fill:none"/>
<circle cx="1595.041741292467" cy="665.5603200000003" r="67.4917845880519" style="stroke:#000000; fill:none"/>
<circle cx="1662.5335258805187" cy="782.4595200000003" r="60.673729788921676" style="stroke:#000000; fill:none"/>
<circle cx="312.6978341194814" cy="314.8627200000006" r="67.49178458805164" style="stroke:#000000; fill:none"/>
<circle cx="380.189618707533" cy="431.76192000000015" r="67.49178458805207" style="stroke:#000000; fill:none"/>
<circle cx="515.173187883637" cy="665.5603200000003" r="67.49178458805167" style="stroke:#000000; fill:none"/>
<circle cx="582.6649724716885" cy="782.4595199999999" r="67.4917845880523" style="stroke:#000000; fill:none"/>
<circle cx="650.1567570597408" cy="899.3587200000004" r="67.49178458805216" style="stroke:#000000; fill:none"/>
<circle cx="785.1403262358442" cy="1133.1571199999996" r="67.49178458805194" style="stroke:#000000; fill:none"/>
<circle cx="852.6321108238963" cy="1250.0563199999997" r="60.673729788922174" style="stroke:#000000; fill:none"/>
<circle cx="1122.5992491761037" cy="1250.0563199999997" r="60.673729788922024" style="stroke:#000000; fill:none"/>
<circle cx="1190.0910337641558" cy="1133.1571199999998" r="67.4917845880526" style="stroke:#000000; fill:none"/>
<circle cx="1325.0746029402592" cy="899.3587200000004" r="67.49178458805207" style="stroke:#000000; fill:none"/>
<circle cx="1392.5663875283112" cy="782.4595200000001" r="67.49178458805177" style="stroke:#000000; fill:none"/>
<circle cx="1460.058172116363" cy="665.5603200000003" r="67.4917845880519" style="stroke:#000000; fill:none"/>
<circle cx="1628.7876335864928" cy="373.31232000000017" r="67.4917845880519" style="stroke:#000000; fill:none"/>
</svg>