<svg xmlns="http://www.w3.org/2000/svg" xmlns:xlink="http://www.w3.org/1999/xlink" width="1920px" height="902px">
<line x1="980.9999999999999" y1="150.0" x2="1240.8076211353314" y2="299.9999999999998" style="stroke:#000000;"/>
<line x1="1240.8076211353316" y1="600.0" x2="1240.8076211353314" y2="299.9999999999998" style="stroke:#000000;"/>
<line x1="980.9999999999999" y1="150.0" x2="721.1923788646683" y2="300.0000000000001" style="stroke:#000000;"/>
<line x1="721.1923788646683" y1="300.0000000000001" x2="721.1923788646684" y2="600.0000000000001" style="stroke:#000000;"/>
<line x1="721.1923788646684" y1="600.0000000000001" x2="981.0000000000001" y2="750.0" style="stroke:#000000;"/>
<line x1="981.0000000000001" y1="750.0" x2="1240.8076211353316" y2="600.0" style="stroke:#000000;"/>
<line x1="981.0" y1="299.9999999999999" x2="1110.9038105676657" y2="374.9999999999999" style="stroke:#000000;"/>
<line x1="1110.9038105676657" y1="374.9999999999999" x2="1110.903810567666" y2="525.0" style="stroke:#000000;"/>
<line x1="1110.903810567666" y1="525.0" x2="981.0000000000001" y2="600.0" style="stroke:#000000;"/>
<line x1="981.0000000000001" y1="600.0" x2="851.0961894323342" y2="525.0" style="stroke:#000000;"/>
<line x1="851.0961894323342" y1="525.0" x2="851.0961894323342" y2="375.0000000000001" style="stroke:#000000;"/>
<line x1="851.0961894323342" y1="375.0000000000001" x2="981.0" y2="299.9999999999999" style="stroke:#000000;"/>
<line x1="980.9999999999999" y1="150.0" x2="981.0000000000001" y2="750.0" style="stroke:#000000;"/>
<line x1="1240.8076211353314" y1="299.9999999999998" x2="721.1923788646684" y2="600.0000000000001" style="stroke:#000000;"/>
<line x1="721.1923788646683" y1="300.0000000000001" x2="1240.8076211353316" y2="600.0" style="stroke:#000000;"/>
<line x1="1110.9038105676657" y1="374.9999999999999" x2="851.0961894323342" y2="375.0000000000001" style="stroke:#000000;"/>
<line x1="1110.903810567666" y1="525.0" x2="851.0961894323342" y2="525.0" style="stroke:#000000;"/>
<line x1="1240.8076211353314" y1="299.9999999999998" x2="721.1923788646683" y2="300.0000000000001" style="stroke:#000000;"/>
<line x1="1240.8076211353316" y1="600.0" x2="721.1923788646684" y2="600.0000000000001" style="stroke:#000000;"/>
<line x1="1240.8076211353314" y1="299.9999999999998" x2="851.0961894323342" y2="375.0000000000001" style="stroke:#000000;"/>
<line x1="1240.8076211353314" y1="299.9999999999998" x2="981.0000000000001" y2="750.0" style="stroke:#000000;"/>
<line x1="1240.8076211353314" y1="299.9999999999998" x2="981.0000000000001" y2="600.0" style="stroke:#000000;"/>
<line x1="1240.8076211353316" y1="600.0" x2="980.9999999999999" y2="150.0" style="stroke:#000000;"/>
<line x1="980.9999999999999" y1="150.0" x2="721.1923788646684" y2="600.0000000000001" style="stroke:#000000;"/>
<line x1="981.0000000000001" y1="750.0" x2="721.1923788646683" y2="300.0000000000001" style="stroke:#000000;"/>
<line x1="1240.8076211353316" y1="600.0" x2="981.0" y2="299.9999999999999" style="stroke:#000000;"/>
<line x1="1240.8076211353316" y1="600.0" x2="851.0961894323342" y2="525.0" style="stroke:#000000;"/>
<line x1="980.9999999999999" y1="150.0" x2="1110.903810567666" y2="525.0" style="stroke:#000000;"/>
<line x1="980.9999999999999" y1="150.0" x2="851.0961894323342" y2="525.0" style="stroke:#000000;"/>
<line x1="981.0000000000001" y1="750.0" x2="1110.9038105676657" y2="374.9999999999999" style="stroke:#000000;"/>
<line x1="981.0000000000001" y1="750.0" x2="851.0961894323342" y2="375.0000000000001" style="stroke:#000000;"/>
<line x1="721.1923788646684" y1="600.0000000000001" x2="1110.903810567666" y2="525.0" style="stroke:#000000;"/>
<line x1="721.1923788646684" y1="600.0000000000001" x2="981.0" y2="299.9999999999999" style="stroke:#000000;"/>
<line x1="721.1923788646683" y1="300.0000000000001" x2="1110.9038105676657" y2="374.9999999999999" style="stroke:#000000;"/>
<line x1="721.1923788646683" y1="300.0000000000001" x2="981.0000000000001" y2="600.0" style="stroke:#000000;"/>
<line x1="981.0" y1="299.9999999999999" x2="1110.903810567666" y2="525.0" style="stroke:#000000;"/>
<line x1="981.0" y1="299.9999999999999" x2="851.0961894323342" y2="525.0" style="stroke:#000000;"/>
<line x1="851.0961894323342" y1="375.0000000000001" x2="981.0000000000001" y2="600.0" style="stroke:#000000;"/>
<line x1="981.0000000000001" y1="600.0" x2="1110.9038105676657" y2="374.9999999999999" style="stroke:#000000;"/>
<circle cx="981.0" cy="299.9999999999999" r="75.00000000000006" style="stroke:#000000; fill:none"/>
<circle cx="981.0000000000001" cy="600.0" r="75.0" style="stroke:#000000; fill:none"/>
<circle cx="981.0" cy="450.0" r="75.00000000000003" style="stroke:#000000; fill:none"/>
<circle cx="981.0000000000001" cy="750.0" r="74.99999999999997" style="stroke:#000000; fill:none"/>
<circle cx="1110.903810567666" cy="525.0" r="74.99999999999994" style="stroke:#000000; fill:none"/>
<circle cx="1110.9038105676657" cy="374.9999999999999" r="74.99999999999994" style="stroke:#000000; fill:none"/>
<circle cx="1240.8076211353314" cy="299.9999999999998" r="75.00000000000007" style="stroke:#000000; fill:none"/>
<circle cx="1240.8076211353316" cy="600.0" r="75.00000000000009" style="stroke:#000000; fill:none"/>
<circle cx="980.9999999999999" cy="150.0" r="74.9999999999998" style="stroke:#000000; fill:none"/>
<circle cx="851.0961894323342" cy="375.0000000000001" r="74.99999999999993" style="stroke:#000000; fill:none"/>
<circle cx="851.0961894323342" cy="525.0" r="74.99999999999993" style="stroke:#000000; fill:none"/>
<circle cx="721.1923788646684" cy="600.0000000000001" r="75.00000000000013" style="stroke:#000000; fill:none"/>
<circle cx="721.1923788646683" cy="300.0000000000001" r="75.0" style="stroke:#000000; fill:none"/>
</svg>