<svg xmlns="http://www.w3.org/2000/svg" xmlns:xlink="http://www.w3.org/1999/xlink" width="453px" height="481px">
<line x1="101.14550558308464" y1="166.79976851851853" x2="214.66098819719073" y2="101.26157407407405" style="stroke:#000000;"/>
<line x1="214.66098819719073" y1="101.26157407407405" x2="328.1764708112969" y2="166.79976851851842" style="stroke:#000000;"/>
<line x1="328.1764708112969" y1="166.79976851851842" x2="328.17647081129695" y2="297.8761574074074" style="stroke:#000000;"/>
<line x1="328.17647081129695" y1="297.8761574074074" x2="214.66098819719082" y2="363.41435185185185" style="stroke:#000000;"/>
<line x1="214.66098819719082" y1="363.41435185185185" x2="214.6609881971908" y2="232.33796296296293" style="stroke:#000000;"/>
<line x1="101.14550558308464" y1="166.79976851851853" x2="214.6609881971908" y2="232.33796296296293" style="stroke:#000000;"/>
<line x1="101.14550558308464" y1="166.79976851851853" x2="101.14550558308468" y2="297.87615740740745" style="stroke:#000000;"/>
<line x1="101.14550558308468" y1="297.87615740740745" x2="214.66098819719082" y2="363.41435185185185" style="stroke:#000000;"/>
<line x1="214.6609881971908" y1="232.33796296296293" x2="328.1764708112969" y2="166.79976851851842" style="stroke:#000000;"/>
<circle cx="214.66098819719076" cy="166.79976851851842" r="32.76909722222225" style="stroke:#000000; fill:none"/>
<circle cx="214.66098819719082" cy="297.87615740740745" r="32.76909722222223" style="stroke:#000000; fill:none"/>
<circle cx="214.6609881971908" cy="232.33796296296296" r="32.76909722222224" style="stroke:#000000; fill:none"/>
<circle cx="214.66098819719082" cy="363.41435185185185" r="32.769097222222214" style="stroke:#000000; fill:none"/>
<circle cx="271.41872950424386" cy="265.10706018518516" r="32.76909722222221" style="stroke:#000000; fill:none"/>
<circle cx="271.4187295042438" cy="199.56886574074068" r="32.7690972222222" style="stroke:#000000; fill:none"/>
<circle cx="328.1764708112969" cy="166.79976851851842" r="32.76909722222226" style="stroke:#000000; fill:none"/>
<circle cx="328.17647081129695" cy="297.8761574074074" r="32.769097222222264" style="stroke:#000000; fill:none"/>
<circle cx="214.66098819719073" cy="101.26157407407405" r="32.76909722222214" style="stroke:#000000; fill:none"/>
<circle cx="157.90324689013772" cy="199.56886574074076" r="32.7690972222222" style="stroke:#000000; fill:none"/>
<circle cx="157.90324689013775" cy="265.10706018518516" r="32.7690972222222" style="stroke:#000000; fill:none"/>
<circle cx="101.14550558308468" cy="297.87615740740745" r="32.769097222222285" style="stroke:#000000; fill:none"/>
<circle cx="101.14550558308464" cy="166.79976851851853" r="32.76909722222223" style="stroke:#000000; fill:none"/>
</svg>