<svg xmlns="http://www.w3.org/2000/svg" xmlns:xlink="http://www.w3.org/1999/xlink" width="1920px" height="902px">
<line x1="640.9902244525011" y1="280.1850666666668" x2="923.4530701508336" y2="117.10506666666663" style="stroke:#000000;"/>
<line x1="923.4530701508336" y1="117.10506666666663" x2="1205.9159158491661" y2="280.18506666666644" style="stroke:#000000;"/>
<line x1="1205.9159158491661" y1="280.18506666666644" x2="1205.9159158491664" y2="606.3450666666666" style="stroke:#000000;"/>
<line x1="1205.9159158491664" y1="606.3450666666666" x2="923.4530701508338" y2="769.4250666666667" style="stroke:#000000;"/>
<line x1="923.4530701508338" y1="769.4250666666667" x2="640.9902244525013" y2="606.3450666666668" style="stroke:#000000;"/>
<line x1="640.9902244525013" y1="606.3450666666668" x2="640.9902244525011" y2="280.1850666666668" style="stroke:#000000;"/>
<line x1="640.9902244525013" y1="606.3450666666668" x2="923.4530701508336" y2="117.10506666666663" style="stroke:#000000;"/>
<line x1="923.4530701508336" y1="117.10506666666663" x2="1205.9159158491664" y2="606.3450666666666" style="stroke:#000000;"/>
<line x1="1205.9159158491664" y1="606.3450666666666" x2="640.9902244525013" y2="606.3450666666668" style="stroke:#000000;"/>
<line x1="640.9902244525011" y1="280.1850666666668" x2="782.2216473016674" y2="361.72506666666675" style="stroke:#000000;"/>
<line x1="782.2216473016674" y1="361.72506666666675" x2="1064.684493" y2="361.7250666666665" style="stroke:#000000;"/>
<line x1="1064.684493" y1="361.7250666666665" x2="1205.9159158491661" y2="280.18506666666644" style="stroke:#000000;"/>
<line x1="782.2216473016674" y1="361.72506666666675" x2="923.4530701508338" y2="606.3450666666668" style="stroke:#000000;"/>
<line x1="923.4530701508338" y1="606.3450666666668" x2="923.4530701508338" y2="769.4250666666667" style="stroke:#000000;"/>
<line x1="923.4530701508338" y1="606.3450666666668" x2="1064.684493" y2="361.7250666666665" style="stroke:#000000;"/>
<circle cx="923.4530701508337" cy="280.18506666666644" r="81.54000000000006" style="stroke:#000000; fill:none"/>
<circle cx="923.4530701508338" cy="606.3450666666668" r="81.54" style="stroke:#000000; fill:none"/>
<circle cx="923.4530701508337" cy="443.26506666666666" r="81.54000000000005" style="stroke:#000000; fill:none"/>
<circle cx="923.4530701508338" cy="769.4250666666667" r="81.53999999999996" style="stroke:#000000; fill:none"/>
<circle cx="1064.684493" cy="524.8050666666667" r="81.53999999999995" style="stroke:#000000; fill:none"/>
<circle cx="1064.684493" cy="361.7250666666665" r="81.53999999999995" style="stroke:#000000; fill:none"/>
<circle cx="1205.9159158491661" cy="280.18506666666644" r="81.54000000000008" style="stroke:#000000; fill:none"/>
<circle cx="1205.9159158491664" cy="606.3450666666666" r="81.54000000000009" style="stroke:#000000; fill:none"/>
<circle cx="923.4530701508336" cy="117.10506666666663" r="81.5399999999998" style="stroke:#000000; fill:none"/>
<circle cx="782.2216473016674" cy="361.72506666666675" r="81.53999999999994" style="stroke:#000000; fill:none"/>
<circle cx="782.2216473016675" cy="524.8050666666666" r="81.53999999999994" style="stroke:#000000; fill:none"/>
<circle cx="640.9902244525013" cy="606.3450666666668" r="81.54000000000015" style="stroke:#000000; fill:none"/>
<circle cx="640.9902244525011" cy="280.1850666666668" r="81.54" style="stroke:#000000; fill:none"/>
</svg>