<svg xmlns="http://www.w3.org/2000/svg" xmlns:xlink="http://www.w3.org/1999/xlink" width="453px" height="481px">
<line x1="70.16349558859048" y1="139.96527777777783" x2="206.38207472551775" y2="61.3194444444444" style="stroke:#000000;"/>
<line x1="206.38207472551775" y1="61.3194444444444" x2="342.60065386244514" y2="139.96527777777766" style="stroke:#000000;"/>
<line x1="342.60065386244514" y1="139.96527777777766" x2="342.6006538624452" y2="297.2569444444444" style="stroke:#000000;"/>
<line x1="342.6006538624452" y1="297.2569444444444" x2="206.3820747255179" y2="375.90277777777777" style="stroke:#000000;"/>
<line x1="206.3820747255179" y1="375.90277777777777" x2="70.16349558859054" y2="297.2569444444445" style="stroke:#000000;"/>
<line x1="70.16349558859054" y1="297.2569444444445" x2="70.16349558859048" y2="139.96527777777783" style="stroke:#000000;"/>
<line x1="70.16349558859054" y1="297.2569444444445" x2="206.38207472551775" y2="61.3194444444444" style="stroke:#000000;"/>
<line x1="206.38207472551775" y1="61.3194444444444" x2="342.6006538624452" y2="297.2569444444444" style="stroke:#000000;"/>
<line x1="342.6006538624452" y1="297.2569444444444" x2="70.16349558859054" y2="297.2569444444445" style="stroke:#000000;"/>
<circle cx="206.3820747255178" cy="139.9652777777777" r="39.3229166666667" style="stroke:#000000; fill:none"/>
<circle cx="206.38207472551787" cy="297.25694444444446" r="39.32291666666667" style="stroke:#000000; fill:none"/>
<circle cx="206.38207472551784" cy="218.61111111111111" r="39.322916666666686" style="stroke:#000000; fill:none"/>
<circle cx="206.3820747255179" cy="375.90277777777777" r="39.32291666666666" style="stroke:#000000; fill:none"/>
<circle cx="274.4913642939815" cy="257.93402777777777" r="39.32291666666664" style="stroke:#000000; fill:none"/>
<circle cx="274.49136429398146" cy="179.28819444444437" r="39.32291666666664" style="stroke:#000000; fill:none"/>
<circle cx="342.60065386244514" cy="139.96527777777766" r="39.32291666666671" style="stroke:#000000; fill:none"/>
<circle cx="342.6006538624452" cy="297.2569444444444" r="39.322916666666714" style="stroke:#000000; fill:none"/>
<circle cx="206.38207472551778" cy="61.3194444444444" r="39.322916666666565" style="stroke:#000000; fill:none"/>
<circle cx="138.27278515705416" cy="179.28819444444449" r="39.322916666666636" style="stroke:#000000; fill:none"/>
<circle cx="138.2727851570542" cy="257.93402777777777" r="39.322916666666636" style="stroke:#000000; fill:none"/>
<circle cx="70.16349558859054" cy="297.2569444444445" r="39.32291666666674" style="stroke:#000000; fill:none"/>
<circle cx="70.16349558859048" cy="139.96527777777783" r="39.32291666666667" style="stroke:#000000; fill:none"/>
</svg>