<svg xmlns="http://www.w3.org/2000/svg" xmlns:xlink="http://www.w3.org/1999/xlink" width="1920px" height="902px">
<line x1="674.1921244797347" y1="591.6503836404252" x2="1227.1011312897824" y2="591.6503836404249" style="stroke:#000000;"/>
<line x1="1227.1011312897824" y1="591.6503836404249" x2="950.6466278847583" y2="112.8171377617004" style="stroke:#000000;"/>
<line x1="950.6466278847583" y1="112.8171377617004" x2="674.1921244797347" y2="591.6503836404252" style="stroke:#000000;"/>
<line x1="674.1921244797347" y1="591.6503836404252" x2="950.6466278847585" y2="432.0393016808501" style="stroke:#000000;"/>
<line x1="950.6466278847585" y1="432.0393016808501" x2="950.6466278847583" y2="112.8171377617004" style="stroke:#000000;"/>
<line x1="950.6466278847585" y1="432.0393016808501" x2="1227.1011312897824" y2="591.6503836404249" style="stroke:#000000;"/>
<circle cx="950.6466278847585" cy="272.4282197212752" r="79.8055409797875" style="stroke:#000000; fill:none"/>
<circle cx="950.6466278847586" cy="591.650383640425" r="79.80554097978744" style="stroke:#000000; fill:none"/>
<circle cx="950.6466278847585" cy="432.0393016808502" r="79.80554097978747" style="stroke:#000000; fill:none"/>
<circle cx="950.6466278847586" cy="751.2614656" r="79.80554097978741" style="stroke:#000000; fill:none"/>
<circle cx="1088.8738795872705" cy="511.8448426606376" r="79.80554097978738" style="stroke:#000000; fill:none"/>
<circle cx="1088.8738795872703" cy="352.2337607010626" r="79.80554097978738" style="stroke:#000000; fill:none"/>
<circle cx="1227.1011312897822" cy="272.4282197212751" r="79.80554097978751" style="stroke:#000000; fill:none"/>
<circle cx="1227.1011312897824" cy="591.6503836404249" r="79.80554097978752" style="stroke:#000000; fill:none"/>
<circle cx="950.6466278847583" cy="112.8171377617004" r="79.80554097978722" style="stroke:#000000; fill:none"/>
<circle cx="812.4193761822464" cy="352.23376070106286" r="79.80554097978737" style="stroke:#000000; fill:none"/>
<circle cx="812.4193761822465" cy="511.8448426606376" r="79.80554097978737" style="stroke:#000000; fill:none"/>
<circle cx="674.1921244797347" cy="591.6503836404252" r="79.80554097978758" style="stroke:#000000; fill:none"/>
<circle cx="674.1921244797345" cy="272.42821972127547" r="79.80554097978744" style="stroke:#000000; fill:none"/>
</svg>